<svg width="34" height="34" viewBox="0 0 34 34" fill="none" xmlns="http://www.w3.org/2000/svg">
<circle cx="17" cy="17" r="17" fill="#FF8D30"/>
<path d="M17.336 21.504V12.208L15.368 13.472C15.0373 13.6853 14.8027 13.792 14.664 13.792C14.5253 13.792 14.3973 13.7387 14.28 13.632C14.1627 13.5147 14.104 13.3867 14.104 13.248C14.104 13.0027 14.2 12.816 14.392 12.688L17.544 10.672C17.6613 10.5973 17.7893 10.56 17.928 10.56C18.12 10.56 18.28 10.6293 18.408 10.768C18.5467 10.896 18.616 11.056 18.616 11.248V21.504C18.616 21.6747 18.552 21.824 18.424 21.952C18.296 22.08 18.1467 22.144 17.976 22.144C17.8053 22.144 17.656 22.08 17.528 21.952C17.4 21.824 17.336 21.6747 17.336 21.504Z" fill="white"/>
</svg>
