<svg width="34" height="34" viewBox="0 0 34 34" fill="none" xmlns="http://www.w3.org/2000/svg">
<circle cx="17" cy="17" r="17" fill="#FFBD30"/>
<path d="M20.072 20.96C20.2 21.0773 20.264 21.2213 20.264 21.392C20.264 21.5627 20.2 21.7067 20.072 21.824C19.9547 21.9413 19.8107 22 19.64 22H14.376C14.184 22 14.024 21.936 13.896 21.808C13.7787 21.68 13.72 21.52 13.72 21.328C13.72 21.0507 13.752 20.8427 13.816 20.704C14.072 20.0853 14.4347 19.4933 14.904 18.928C15.384 18.3627 15.96 17.76 16.632 17.12C17.304 16.48 17.784 15.9947 18.072 15.664C18.6587 14.992 18.952 14.3147 18.952 13.632C18.952 13.024 18.776 12.528 18.424 12.144C18.0827 11.76 17.5973 11.568 16.968 11.568C16.4133 11.568 15.9067 11.6693 15.448 11.872C15.352 11.9147 15.2347 11.9787 15.096 12.064C14.968 12.1387 14.856 12.2027 14.76 12.256C14.664 12.2987 14.5733 12.32 14.488 12.32C14.328 12.32 14.184 12.2667 14.056 12.16C13.9387 12.0427 13.88 11.8987 13.88 11.728C13.88 11.504 14.0187 11.3013 14.296 11.12C15.0533 10.64 15.9493 10.4 16.984 10.4C17.976 10.4 18.76 10.6933 19.336 11.28C19.912 11.856 20.2 12.5813 20.2 13.456C20.2 14.5653 19.816 15.552 19.048 16.416C18.7707 16.7253 18.3333 17.168 17.736 17.744C17.1387 18.3093 16.632 18.832 16.216 19.312C15.8 19.792 15.4747 20.2827 15.24 20.784H19.64C19.8107 20.784 19.9547 20.8427 20.072 20.96Z" fill="white"/>
</svg>
