<svg width="34" height="34" viewBox="0 0 34 34" fill="none" xmlns="http://www.w3.org/2000/svg">
<circle cx="17" cy="17" r="17" fill="#FFD74B"/>
<path d="M19.656 11.888L16.968 15.36C17.9173 15.3813 18.6853 15.6693 19.272 16.224C19.8693 16.7787 20.168 17.536 20.168 18.496C20.168 19.0827 20.0613 19.6427 19.848 20.176C19.6453 20.7093 19.288 21.1733 18.776 21.568C18.264 21.952 17.6453 22.144 16.92 22.144C16.696 22.144 16.4347 22.128 16.136 22.096C15.848 22.064 15.5173 22.0107 15.144 21.936C14.7707 21.8613 14.456 21.7387 14.2 21.568C13.9547 21.3973 13.832 21.1947 13.832 20.96C13.832 20.8 13.8907 20.6613 14.008 20.544C14.1253 20.416 14.264 20.352 14.424 20.352C14.5413 20.352 14.6533 20.384 14.76 20.448C15.3787 20.8107 15.9813 20.992 16.568 20.992C17.3893 20.992 17.9813 20.752 18.344 20.272C18.7173 19.792 18.904 19.2213 18.904 18.56C18.904 17.856 18.7067 17.3387 18.312 17.008C17.9173 16.6667 17.3893 16.496 16.728 16.496C16.44 16.496 16.2107 16.528 16.04 16.592C16.0293 16.592 15.992 16.608 15.928 16.64C15.8747 16.672 15.8213 16.688 15.768 16.688C15.5547 16.688 15.3947 16.576 15.288 16.352C15.1813 16.128 15.2027 15.9147 15.352 15.712L18.216 11.984H14.664C14.4933 11.984 14.344 11.9253 14.216 11.808C14.0987 11.6907 14.04 11.5413 14.04 11.36C14.04 11.1787 14.0987 11.024 14.216 10.896C14.344 10.768 14.4933 10.704 14.664 10.704H19.128C19.3307 10.704 19.496 10.7733 19.624 10.912C19.752 11.04 19.816 11.2107 19.816 11.424C19.816 11.5947 19.7627 11.7493 19.656 11.888Z" fill="white"/>
</svg>
